<svg xmlns="http://www.w3.org/2000/svg" xml:space="preserve" viewBox="0 0 196 41">
  <path fill="#010202" d="M118.1 39.1h-15.4L85.5 1.6h15.6l17 37.5zM21.4.5C10.1.5 1 9.5 1 20.5s9.2 20 20.4 20c7.2 0 13.7-3.6 17.4-9.6l-1.2-.7c-3.5 5.6-9.6 8.9-16.2 8.9V20.5h20.4c0-11-9.2-20-20.4-20m45.8 38.6V1.9c6 0 11.5 2.7 15.1 7.3l1.1-.8C79.5 3.4 73.6.5 67.2.5c-11.3 0-20.4 9-20.4 20s9.2 20 20.4 20c6.4 0 12.3-2.9 16.2-7.9l-1.1-.8c-3.7 4.6-9.2 7.3-15.1 7.3m52.9-37.6c4.4-2.1 9.6-.8 12.5 3L125.5 20c-4 .4-8-1.7-9.9-5.4-2.5-4.8-.5-10.7 4.5-13.1m21.8 6.2c.1 1.1 1 1.6 1.9 1.6.8 0 1.3-.3 1.6-.9h1.7c-.3.7-.8 1.3-1.3 1.6-.6.4-1.2.6-1.9.6-2.1 0-3.5-1.6-3.5-3.5s1.5-3.5 3.5-3.5c1 0 1.9.4 2.5 1 .8.8 1.1 1.8 1 3l-5.5.1zm3.9-1.2c-.1-.6-.8-1.5-1.9-1.5-1.2 0-1.8.8-1.9 1.5h3.8zm-.5-5.9.5 1.1-3 1.4-.5-.9 3-1.6zm10 7.5c-.4 1.5-1.7 2.6-3.4 2.6-2.1 0-3.6-1.6-3.6-3.5s1.5-3.5 3.5-3.5c1.7 0 3.1 1 3.5 2.6h-1.6c-.3-.7-.9-1.2-1.8-1.2-.6 0-1 .2-1.4.6-.3.4-.6.9-.6 1.5 0 1.2.8 2 2 2 1 0 1.6-.6 1.8-1.1h1.6zm1-.9c0-1.7 1.3-3.4 3.6-3.4s3.6 1.8 3.6 3.5-1.3 3.5-3.6 3.5c-2.3-.1-3.6-1.9-3.6-3.6zm1.6 0c0 1.1.9 2 2 2s2-.8 2-2-.9-2-2-2-2 .8-2 2zm6.9-5.6h1.6v8.8h-1.6V1.6zm4.5 6.1c.1 1.1 1 1.6 1.9 1.6.8 0 1.3-.3 1.6-.9h1.7c-.3.7-.8 1.3-1.3 1.6-.6.4-1.2.6-1.9.6-2.1 0-3.5-1.6-3.5-3.5s1.5-3.5 3.5-3.5c1 0 1.9.4 2.5 1 .8.8 1.1 1.8 1 3l-5.5.1zm3.8-1.2c-.1-.6-.7-1.5-1.9-1.5s-1.8.8-1.9 1.5h3.8zm13.6 4h-1.5v-1c-.3.5-.9 1.1-2.3 1.1-2.1 0-3.4-1.6-3.4-3.5 0-2.1 1.5-3.5 3.4-3.5 1.3 0 2 .7 2.3 1.1V1.6h1.6l-.1 8.9zM181 7.2c0 1.1.8 2 2 2 .6 0 1.1-.2 1.5-.6.4-.4.6-.9.6-1.5s-.2-1.1-.6-1.4c-.4-.4-.9-.6-1.4-.6-1.3.1-2.1 1-2.1 2.1zm8.6.5c.1 1.1 1 1.6 1.9 1.6.8 0 1.3-.3 1.6-.9h1.7c-.3.7-.8 1.3-1.3 1.6-.6.4-1.2.6-1.9.6-2.1 0-3.5-1.6-3.5-3.5s1.5-3.5 3.5-3.5c1 0 1.9.4 2.5 1 .8.8 1.1 1.8 1 3l-5.5.1zm3.8-1.2c-.1-.6-.7-1.5-1.9-1.5s-1.8.8-1.9 1.5h3.8zm-46 15.9c-.4 1.5-1.7 2.6-3.4 2.6-2.1 0-3.6-1.6-3.6-3.5s1.5-3.5 3.5-3.5c1.7 0 3.1 1 3.5 2.6h-1.6c-.3-.7-.9-1.2-1.8-1.2-.6 0-1 .2-1.4.6-.3.4-.6.9-.6 1.5 0 1.2.8 2 2 2 1 0 1.6-.6 1.8-1.1h1.6zm1.3-4.2h1.5v.9c.3-.6.8-1.1 1.8-1.1v1.6c-1.1 0-1.7.5-1.7 1.6v3.5h-1.6v-6.5zM154 22c.1 1.1 1 1.6 1.9 1.6.8 0 1.3-.3 1.6-.9h1.7c-.3.7-.8 1.3-1.3 1.6-.6.4-1.2.6-1.9.6-2.1 0-3.5-1.6-3.5-3.5s1.5-3.5 3.5-3.5c1 0 1.9.4 2.5 1 .8.8 1.1 1.8 1 3l-5.5.1zm3.8-1.2c-.1-.6-.7-1.5-1.9-1.5s-1.8.8-1.9 1.5h3.8zm-.5-5.8.5 1.1-3 1.4-.5-.9 3-1.6zm10.3 9.8H166v-.9c-.4.8-1.3 1.1-2.3 1.1-2.2 0-3.4-1.6-3.4-3.5 0-2.1 1.5-3.5 3.4-3.5 1.2 0 2 .6 2.3 1.1v-1h1.6v6.7zm-5.6-3.2c0 .8.6 2 2 2 .9 0 1.5-.5 1.8-1.1.2-.3.2-.6.3-.9 0-.3-.1-.6-.2-.9-.3-.6-.9-1.1-1.9-1.1-1.3-.1-2 .9-2 2zm7.8-2.2h-1.1v-1.2h1.1V16h1.6v2.3h1.2v1.2h-1.2v5.4h-1.6v-5.5zm3.8-3.4h1.6v1.4h-1.6V16zm0 2.2h1.6v6.6h-1.6v-6.6zm2.9 3.3c0-1.7 1.3-3.4 3.6-3.4s3.6 1.8 3.6 3.5-1.3 3.5-3.6 3.5c-2.3-.1-3.6-1.9-3.6-3.6zm1.6 0c0 1.1.9 2 2 2s2-.8 2-2c0-1.1-.9-2-2-2s-2 .9-2 2zm6.9-3.3h1.5v.9c.3-.5.9-1.1 2.1-1.1 2.2 0 2.6 1.6 2.6 2.8v4h-1.6v-3.6c0-1-.3-1.7-1.4-1.7-1.1 0-1.5.8-1.5 1.7v3.6H185v-6.6zm-40.8 20.9h-1.6l-2.5-6.6h1.7l1.6 4.6 1.6-4.6h1.7l-2.5 6.6zm3.6-8.8h1.6v1.4h-1.6v-1.4zm0 2.3h1.6v6.6h-1.6v-6.6zm6.2 1.7c0-.3-.2-.7-.8-.7-.5 0-.8.3-.8.7 0 .4.5.6 1.1.8 1.1.3 2.2.6 2.3 2 0 1.4-1.1 2.2-2.5 2.2-1 0-2.4-.5-2.6-2.1h1.6c.1.7.7.8 1 .8.5 0 .9-.3.9-.8 0-.6-.5-.7-1.7-1.1-.9-.3-1.6-.8-1.7-1.7 0-1.3 1.1-2.1 2.4-2.1.9 0 2.3.4 2.4 2H154zm9.2 4.8h-1.5v-.9c-.3.5-.9 1.1-2.1 1.1-2.2 0-2.6-1.6-2.6-2.8v-4h1.6v3.6c0 1 .3 1.7 1.5 1.7s1.5-.7 1.5-1.7v-3.6h1.6v6.6zm2.9-2.7c.1 1.1 1 1.6 1.9 1.6.8 0 1.3-.3 1.6-.9h1.7c-.3.7-.8 1.3-1.3 1.6-.6.4-1.2.6-1.9.6-2.1 0-3.5-1.6-3.5-3.5s1.5-3.5 3.5-3.5c1 0 1.9.4 2.5 1 .8.8 1.1 1.8 1 3l-5.5.1zm3.8-1.2c-.1-.6-.7-1.5-1.9-1.5s-1.8.8-1.9 1.5h3.8zm2.9-4.9h1.6v8.8h-1.6v-8.8zm3.3 0h1.6v8.8h-1.6v-8.8zm4.5 6.1c.1 1.1 1 1.6 1.9 1.6.8 0 1.3-.3 1.6-.9h1.7c-.3.7-.8 1.3-1.3 1.6-.6.4-1.2.6-1.9.6-2.1 0-3.5-1.6-3.5-3.5s1.5-3.5 3.5-3.5c1 0 1.9.4 2.5 1 .8.8 1.1 1.8 1 3l-5.5.1zm3.8-1.2c-.1-.6-.7-1.5-1.9-1.5s-1.8.8-1.9 1.5h3.8z"/>
</svg>
